<!DOCTYPE svg PUBLIC "-//W3C//DTD SVG 1.1//EN" "http://www.w3.org/Graphics/SVG/1.1/DTD/svg11.dtd">
<!-- Uploaded to: SVG Repo, www.svgrepo.com, Transformed by: SVG Repo Mixer Tools -->
<svg width="256px" height="256px" viewBox="-2.4 -2.4 28.80 28.80" fill="none" xmlns="http://www.w3.org/2000/svg">
<g id="SVGRepo_bgCarrier" stroke-width="0" transform="translate(1.4399999999999995,1.4399999999999995), scale(0.88)">
<path transform="translate(-2.4, -2.4), scale(0.8999999999999999)" d="M16,31.1919002905488C19.278202274818437,31.31188049026213,22.592854235121525,30.65330704260765,25.296453091228788,28.795469959275657C28.046321260285193,26.905837905612533,30.102793201257057,24.087896399744483,31.010401023228116,20.877174940801385C31.896220817403265,17.74353004146798,31.66621109691678,14.297244226135971,30.219521246750176,11.379797475928576C28.881985945761546,8.68247571293455,25.943469309277255,7.4356932896997465,23.483998111181315,5.699160306929633C21.06644944414184,3.9922271251074237,18.95810684359957,1.4280964168389503,16.000000000000004,1.339969539216586C13.01636469996425,1.2510821268078893,10.65413606977771,3.566285654924269,8.184853444663469,5.2433735754022255C5.622259192689436,6.983836907287154,2.7002393200543,8.444527476160506,1.3998290402604265,11.256116886812915C0.016302337786221033,14.247410547339737,-0.12110746222274327,17.773154741098338,0.9476348912874943,20.890809898709662C2.006673974753806,23.980159403607985,4.490007457192123,26.288189044843087,7.185144930159112,28.132607149702658C9.81624857307802,29.93320368455001,12.813896345366054,31.07529084404614,16,31.1919002905488" fill="#000000" strokewidth="0"/>
</g>
<g id="SVGRepo_tracerCarrier" stroke-linecap="round" stroke-linejoin="round" stroke="#ffffff" stroke-width="0.144"/>
<g id="SVGRepo_iconCarrier"> <path d="M7 8L3 11.6923L7 16M17 8L21 11.6923L17 16M14 4L10 20" stroke="#fe5858" stroke-width="1.392" stroke-linecap="round" stroke-linejoin="round"/> </g>
</svg>